<?xml version="1.0" encoding="utf-8"?>
<!-- Generator: Adobe Illustrator 21.0.2, SVG Export Plug-In . SVG Version: 6.00 Build 0)  -->
<svg version="1.1" id="Layer_1" xmlns="http://www.w3.org/2000/svg" xmlns:xlink="http://www.w3.org/1999/xlink" x="0px" y="0px"
	 viewBox="0 0 19 21" style="enable-background:new 0 0 19 21;" xml:space="preserve">
<path d="M15.8,20.7l-3.2-3.4C10.7,19.8,8.6,21,6.4,21c-1.8,0-3.3-0.6-4.6-1.8C0.6,18,0,16.6,0,14.9c0-2.7,1.6-4.2,4.7-6.1
	C3.2,7.3,2.5,5.9,2.5,4.5c0-1.3,0.5-2.4,1.4-3.3C4.9,0.4,6,0,7.4,0s2.5,0.4,3.4,1.3c1,0.9,1.5,1.9,1.5,3.3c0,1.7-1.3,3.3-3.8,4.8
	l3.9,4.2l2.1-3.3h2.8l-3.2,5l5,5.3L15.8,20.7L15.8,20.7z M6.3,10.4c-2.7,1.3-4.1,2.9-4.1,4.9c0,1,0.4,1.8,1.3,2.6
	c0.8,0.8,1.8,1.1,2.8,1.1c0.7,0,1.4-0.2,2.1-0.6c0.7-0.4,1.2-0.8,1.5-1.2c0.3-0.4,0.8-0.9,1.3-1.6L6.3,10.4z M6.8,7.8
	c0.8-0.4,1.3-0.7,2-1.2C9.6,6,10,5.2,10,4.4C10,3,8.9,2,7.3,2S4.7,3,4.7,4.3C4.7,5.3,5.4,6.4,6.8,7.8z"/>
</svg>
