<?xml version="1.0" encoding="utf-8"?>
<!-- Generator: Adobe Illustrator 21.0.2, SVG Export Plug-In . SVG Version: 6.00 Build 0)  -->
<svg version="1.1" id="Layer_1" xmlns="http://www.w3.org/2000/svg" xmlns:xlink="http://www.w3.org/1999/xlink" x="0px" y="0px"
	 viewBox="0 0 174.7 21" style="enable-background:new 0 0 174.7 21;" xml:space="preserve">
<g>
	<g>
		<path class="logotype__R" d="M5.6,0.4c4.6,0,6.8,2.7,6.8,5.9c0,2.9-1.9,5.3-5.1,5.9l6.2,8.5h-2.8l-6-8.3H2.3v8.3H0V0.4H5.6z M2.3,10.2h3.2
			c2.7,0,4.5-1.5,4.5-3.8c0-2.3-1.9-3.7-4.5-3.7H2.3V10.2z"/>
		<path class="logotype__A" d="M26.1,0.4l8.7,20.3h-2.5l-2-4.7h-9.9l-1.9,4.7H16l8.7-20.3C24.7,0.4,26.1,0.4,26.1,0.4z M26.5,6.8c-0.4-0.9-0.9-2.1-1-2.6
			h-0.1c-0.2,0.6-0.6,1.6-1,2.6l-2.9,6.9h8.1L26.5,6.8z"/>
		<path class="logotype__M" d="M54.5,0.4h1.4v20.3h-2.3V8.3c0-1.2,0.1-2.7,0.1-3.3h-0.2c-0.3,0.4-1.1,1.4-1.8,2l-4.7,5l-4.7-5c-0.7-0.7-1.5-1.6-1.8-2
			h-0.2c0,0.6,0.1,2,0.1,3.3v12.5H38V0.4h1.4l7.6,8.3L54.5,0.4z"/>
		<path class="logotype__B" d="M67.1,0.4c4.4,0,6.4,2.7,6.4,5.6c0,1.7-1,3.5-2.4,4.2c1.9,0.8,3.1,2.9,3.1,4.8c0,3.7-3,5.7-6.5,5.7h-6.7V0.4H67.1z
			 M63.4,9.3h3.9c2.2,0,3.9-1,3.9-3.3c0-2.2-1.8-3.3-3.9-3.3h-3.8L63.4,9.3L63.4,9.3z M63.4,18.5h4.3c2.3,0,4.2-1.1,4.2-3.6
			c0-2.3-1.8-3.4-4.4-3.4h-4.1C63.4,11.6,63.4,18.5,63.4,18.5z"/>
		<path class="logotype__L" d="M81.2,18.5h9.2v2.2H78.8V0.4h2.3C81.2,0.4,81.2,18.5,81.2,18.5z"/>
		<path class="logotype__E" d="M93.9,0.4h11.3v2.2h-8.9v6.2h8.7v2.3h-8.7v7.4h8.9v2.2H93.9V0.4z"/>
        <path class="logotype__R" d="M115.5,0.4c4.6,0,6.8,2.7,6.8,5.9c0,2.9-1.9,5.3-5.1,5.9l6.2,8.5h-2.8l-6-8.3h-2.3v8.3H110V0.4H115.5z M112.3,10.2h3.2
				c2.7,0,4.5-1.5,4.5-3.8c0-2.3-1.9-3.7-4.5-3.7h-3.2L112.3,10.2L112.3,10.2z"/>
		<path class="logotype__AMP" d="M143.4,20.7l-3.2-3.4c-1.9,2.5-3.9,3.7-6.1,3.7c-1.8,0-3.3-0.6-4.6-1.8c-1.2-1.2-1.8-2.6-1.8-4.3c0-2.7,1.6-4.2,4.7-6.1
			c-1.5-1.5-2.2-2.9-2.2-4.3c0-1.3,0.5-2.4,1.4-3.3c0.9-0.9,2.1-1.3,3.5-1.3s2.5,0.4,3.4,1.3c1,0.9,1.5,1.9,1.5,3.3
			c0,1.7-1.3,3.3-3.8,4.8l3.9,4.2l2.1-3.3h2.8l-3.2,5l5,5.3L143.4,20.7L143.4,20.7z M133.9,10.4c-2.7,1.3-4.1,2.9-4.1,4.9
			c0,1,0.4,1.8,1.3,2.6c0.8,0.8,1.8,1.1,2.8,1.1c0.7,0,1.4-0.2,2.1-0.6c0.7-0.4,1.2-0.8,1.5-1.2c0.3-0.4,0.8-0.9,1.3-1.6L133.9,10.4
			z M134.4,7.8c0.8-0.4,1.3-0.7,2-1.2c0.8-0.6,1.2-1.3,1.2-2.2c0-1.4-1.1-2.4-2.7-2.4s-2.6,1.1-2.6,2.3C132.3,5.3,133,6.4,134.4,7.8
			z"/>
        <path class="logotype__C" d="M165.3,17.3c-0.1-0.1-0.1-0.3-0.1-0.4c0-0.1,0-0.1-0.1-0.2c0-0.1-0.1-0.2-0.1-0.2c0-0.1-0.1-0.2-0.1-0.2
			c-0.1-0.2-0.3-0.4-0.4-0.6c-0.1-0.1-0.5-0.6-0.2-0.2c-0.1-0.1-0.2-0.2-0.3-0.3c-1.2,2.3-3.5,3.6-5.8,3.6c-4.7,0-7.7-3.8-7.7-8.3
			c0-4.5,3.2-8.3,7.9-8.3c1.8,0,3.5,0.6,4.9,1.7V1.3c-1.5-0.8-3.2-1.3-4.9-1.3c-5.7,0-10.3,4.6-10.3,10.5c0,5.9,4.4,10.4,10.1,10.5
			c0,0,0,0,0,0c0,0,0,0,0,0c0,0,0,0,0,0v0C161.1,21,163.8,19.6,165.3,17.3z"/>
		<path class="logotype__O" d="M168.6,8.2c3.6,0,6.2,2.9,6.2,6.4c0,3.5-2.6,6.4-6.2,6.4s-6.2-2.9-6.2-6.3C162.4,10.9,165.1,8.2,168.6,8.2z M168.6,19
			c2.2,0,3.9-1.8,3.9-4.4c0-2.6-1.9-4.3-3.9-4.3c-2.1,0-3.9,1.8-3.9,4.4C164.7,17,166.3,19,168.6,19z"/>

	</g>
</g>
</svg>
