<?xml version="1.0" standalone="no"?>
<!DOCTYPE svg PUBLIC "-//W3C//DTD SVG 20010904//EN"
 "http://www.w3.org/TR/2001/REC-SVG-20010904/DTD/svg10.dtd">
<svg version="1.0" xmlns="http://www.w3.org/2000/svg"
 width="16.000000pt" height="16.000000pt" viewBox="0 0 16.000000 16.000000"
 preserveAspectRatio="xMidYMid meet">
<metadata>
Created by potrace 1.11, written by Peter Selinger 2001-2013
</metadata>
<g transform="translate(0.000000,16.000000) scale(0.005333,-0.005333)"
fill="#000000" stroke="none">
<path d="M1320 2879 c-25 -4 -61 -9 -80 -12 -19 -4 -75 -18 -125 -32 -458
-133 -817 -492 -950 -950 -42 -145 -50 -207 -50 -390 1 -161 7 -214 41 -343
65 -250 181 -450 368 -637 214 -213 468 -341 770 -390 90 -14 311 -17 378 -5
24 5 59 10 78 13 67 9 206 50 292 88 314 135 573 385 716 689 36 77 84 214 96
272 3 13 10 48 16 78 18 83 20 340 5 445 -92 603 -569 1080 -1170 1169 -94 14
-308 17 -385 5z m422 -153 c258 -55 453 -161 639 -346 183 -182 291 -382 344
-635 21 -96 29 -317 15 -400 -5 -33 -12 -78 -16 -99 -19 -127 -123 -357 -216
-483 -246 -333 -620 -517 -1033 -509 -339 8 -615 126 -855 366 -184 183 -290
379 -346 638 -19 87 -27 332 -14 402 4 25 10 59 13 75 22 137 101 328 194 467
57 84 187 224 264 284 149 115 346 204 529 241 128 26 359 25 482 -1z"/>
<path d="M1282 2218 c-94 -14 -185 -75 -225 -152 -67 -130 -43 -277 66 -401
l44 -49 -82 -58 c-110 -77 -170 -139 -207 -218 -28 -57 -31 -75 -31 -150 2
-245 183 -421 433 -422 154 -1 299 78 408 221 l26 33 111 -118 112 -118 109 2
c59 2 110 4 111 6 4 4 -143 165 -300 327 l-37 39 36 58 c39 59 164 257 178
280 5 9 -15 12 -91 12 l-98 0 -71 -115 -72 -115 -95 103 c-132 143 -167 181
-167 188 0 3 22 20 48 37 71 46 149 127 179 185 20 40 26 66 26 117 0 92 -30
156 -104 224 -84 79 -177 104 -307 84z m160 -154 c102 -52 122 -169 45 -266
-18 -23 -149 -108 -166 -108 -41 0 -151 173 -151 237 0 67 53 135 119 151 50
12 114 6 153 -14z m-130 -593 c1 -5 61 -70 132 -145 70 -74 139 -148 151 -163
l24 -27 -42 -50 c-68 -82 -108 -117 -177 -149 -120 -57 -234 -36 -330 63 -135
138 -75 334 141 462 47 28 66 35 80 28 9 -6 19 -14 21 -19z"/>
</g>
</svg>
